<svg xmlns="http://www.w3.org/2000/svg" version="1.1" xmlns:xlink="http://www.w3.org/1999/xlink" xmlns:svgjs="http://svgjs.dev/svgjs" width="1000" height="1000" viewBox="0 0 1000 1000"><rect width="1000" height="1000" fill="#ffffff"></rect><g transform="matrix(0.7,0,0,0.7,149.57575757575756,425.3665413922073)"><svg viewBox="0 0 396 85" data-background-color="#755bb4" preserveAspectRatio="xMidYMid meet" height="214" width="1000" xmlns="http://www.w3.org/2000/svg" xmlns:xlink="http://www.w3.org/1999/xlink"><g id="tight-bounds" transform="matrix(1,0,0,1,0.2400000000000091,-0.1512417779547377)"><svg viewBox="0 0 395.52 85.30248355590946" height="85.30248355590946" width="395.52"><g><svg viewBox="0 0 539.1212788820797 116.27322013167344" height="85.30248355590946" width="395.52"><g><rect width="4.382585408335516" height="84.55469336637611" x="406.99273667103535" y="15.859263382648663" fill="#000000" opacity="1" stroke-width="0" stroke="transparent" fill-opacity="1" class="rect-o-0" data-fill-palette-color="primary" rx="1%" id="o-0" data-palette-color="#ffffff"></rect></g><g transform="matrix(1,0,0,1,0,16.069598440773973)"><svg viewBox="0 0 395.52 84.1340232501255" height="84.1340232501255" width="395.52"><g id="textblocktransform"><svg viewBox="0 0 395.52 84.1340232501255" height="84.1340232501255" width="395.52" id="textblock"><g><svg viewBox="0 0 395.52 48.59764089121886" height="48.59764089121886" width="395.52"><g transform="matrix(1,0,0,1,0,0)"><svg width="395.52" viewBox="3 -37.5 308.0799865722656 37.5" height="48.59764089121886" data-palette-color="#ffffff"><g class="wordmark-text-0" data-fill-palette-color="primary" id="text-0"><path d="M7-26.1L19.4-18.35Q20.4-17.65 21.28-17.13 22.15-16.6 22.8-16L22.8-16Q24.1-14.8 24.1-13.05L24.1-13.05 24.1-4.55Q24.1-2.3 22.5-1.1L22.5-1.1Q21.15 0 18.95 0L18.95 0 3 0 3-9.25 6.6-9.25 6.6-3.4 20.1-3.4 20.1-13.15 7-21.2Q5.25-22.2 4.13-23.28 3-24.35 3-26.2L3-26.2 3-32.5Q3-35.45 4.4-36.55L4.4-36.55Q5.6-37.5 8.55-37.5L8.55-37.5 23.65-37.5 23.65-28.25 20.05-28.25 20.05-34.1 7-34.1 7-26.1ZM35.1 0L35.1-3.4 38.25-3.4 38.25-34.1 31.95-34.1 31.95-28.2 28.35-28.2 28.35-37.5 52.3-37.5 52.3-28.2 48.65-28.2 48.65-34.1 42.35-34.1 42.35-3.4 45.6-3.4 45.6 0 35.1 0ZM82.3-3.4L85.09-3.4 85.09 0 75.2 0 75.2-3.4 77.9-3.4 69.34-17.15 64.05-13.9 64.05-3.4 67.3-3.4 67.3 0 56.8 0 56.8-3.4 59.95-3.4 59.95-34.1 56.8-34.1 56.8-37.5 74.65-37.5Q77.95-37.5 79.09-36.23 80.25-34.95 80.25-31.25L80.25-31.25 80.25-28.15Q80.25-26.25 79.9-25.15 79.55-24.05 78.65-23.18 77.75-22.3 76.25-21.4 74.75-20.5 72.45-19.1L72.45-19.1 82.3-3.4ZM64.05-34.1L64.05-17.9 76.59-25.65 76.59-34.1 64.05-34.1ZM103.39-24.65L106.79-24.65 106.79-14.15 103.39-14.15 103.39-17.7 96.34-17.7 96.34-3.4 109.14-3.4 109.14-9.25 112.54-9.25 112.54 0 89.09 0 89.09-3.4 92.24-3.4 92.24-34.1 89.09-34.1 89.09-37.5 112.54-37.5 112.54-28.25 109.14-28.25 109.14-34.1 96.34-34.1 96.34-21.1 103.39-21.1 103.39-24.65ZM126.59-16.5L135.49-16.5 131.04-34.1 126.59-16.5ZM142.59-3.4L145.84-3.4 145.84 0 136.09 0 136.09-3.4 138.79-3.4 136.29-13.35 125.79-13.35 123.29-3.4 126.04-3.4 126.04 0 116.29 0 116.29-3.4 119.44-3.4 128.14-37.5 134.04-37.5 142.59-3.4ZM153.49-34.1L150.34-34.1 150.34-37.5 158.04-37.5 168.64-15.65 179.14-37.5 186.84-37.5 186.84-34.1 183.69-34.1 183.69-3.4 186.84-3.4 186.84 0 176.34 0 176.34-3.4 179.59-3.4 179.59-29.15 170.14-9.7 166.99-9.7 157.59-29.3 157.59-3.4 160.84-3.4 160.84 0 150.34 0 150.34-3.4 153.49-3.4 153.49-34.1ZM193.09-37.5L210.74-37.5Q214.44-37.5 215.86-35.88 217.29-34.25 217.29-30.95L217.29-30.95 217.29-6.55Q217.29-3.1 215.69-1.55 214.09 0 210.74 0L210.74 0 193.09 0 193.09-3.4 196.24-3.4 196.24-34.1 193.09-34.1 193.09-37.5ZM213.19-3.4L213.19-34.1 200.34-34.1 200.34-3.4 213.19-3.4ZM231.83-16.5L240.73-16.5 236.28-34.1 231.83-16.5ZM247.83-3.4L251.08-3.4 251.08 0 241.33 0 241.33-3.4 244.03-3.4 241.53-13.35 231.03-13.35 228.53-3.4 231.28-3.4 231.28 0 221.53 0 221.53-3.4 224.68-3.4 233.38-37.5 239.28-37.5 247.83-3.4ZM259.33-26.1L271.73-18.35Q272.73-17.65 273.61-17.13 274.48-16.6 275.13-16L275.13-16Q276.43-14.8 276.43-13.05L276.43-13.05 276.43-4.55Q276.43-2.3 274.83-1.1L274.83-1.1Q273.48 0 271.28 0L271.28 0 255.33 0 255.33-9.25 258.93-9.25 258.93-3.4 272.43-3.4 272.43-13.15 259.33-21.2Q257.58-22.2 256.46-23.28 255.33-24.35 255.33-26.2L255.33-26.2 255.33-32.5Q255.33-35.45 256.73-36.55L256.73-36.55Q257.93-37.5 260.88-37.5L260.88-37.5 275.98-37.5 275.98-28.25 272.38-28.25 272.38-34.1 259.33-34.1 259.33-26.1ZM311.08-34.1L307.93-34.1 307.93-3.4 311.08-3.4 311.08 0 300.78 0 300.78-3.4 303.83-3.4 303.83-17.7 289.93-17.7 289.93-3.4 292.98-3.4 292.98 0 282.68 0 282.68-3.4 285.83-3.4 285.83-34.1 282.68-34.1 282.68-37.5 292.98-37.5 292.98-34.1 289.93-34.1 289.93-21.05 303.83-21.05 303.83-34.1 300.78-34.1 300.78-37.5 311.08-37.5 311.08-34.1Z" fill="#000000" data-fill-palette-color="primary"></path></g></svg></g></svg></g><g transform="matrix(1,0,0,1,163.310208,60.070377562254244)"><svg viewBox="0 0 232.209792 24.06364568787126" height="24.06364568787126" width="232.209792"><g transform="matrix(1,0,0,1,0,0)"><svg width="232.209792" viewBox="3.6100001335144043 -36.45000076293945 452.0600280761719 46.849998474121094" height="24.06364568787126" data-palette-color="#ffffff"><path d="M13.84 0L3.61 0 3.61-35.55 14.11-35.55Q18.82-35.55 22.47-33.45 26.12-31.35 28.13-27.49 30.13-23.63 30.13-18.65L30.13-18.65 30.13-16.87Q30.13-11.82 28.11-7.98 26.1-4.15 22.38-2.08 18.65 0 13.84 0L13.84 0ZM14.11-30.57L9.79-30.57 9.79-4.93 13.82-4.93Q18.68-4.93 21.28-7.97 23.88-11.01 23.93-16.7L23.93-16.7 23.93-18.68Q23.93-24.46 21.41-27.51 18.9-30.57 14.11-30.57L14.11-30.57ZM49.56-26.56L49.53-21Q48.36-21.19 47.12-21.19L47.12-21.19Q43.04-21.19 41.62-18.07L41.62-18.07 41.62 0 35.69 0 35.69-26.42 41.35-26.42 41.5-23.46Q43.65-26.9 47.46-26.9L47.46-26.9Q48.73-26.9 49.56-26.56L49.56-26.56ZM64.45 0.49L64.45 0.49Q58.81 0.49 55.31-3.06 51.8-6.62 51.8-12.52L51.8-12.52 51.8-13.26Q51.8-17.21 53.33-20.32 54.85-23.44 57.61-25.17 60.37-26.9 63.76-26.9L63.76-26.9Q69.16-26.9 72.1-23.46 75.04-20.02 75.04-13.72L75.04-13.72 75.04-11.33 57.78-11.33Q58.05-8.06 59.97-6.15 61.88-4.25 64.79-4.25L64.79-4.25Q68.87-4.25 71.43-7.54L71.43-7.54 74.63-4.49Q73.04-2.12 70.39-0.82 67.74 0.49 64.45 0.49ZM63.74-22.14L63.74-22.14Q61.3-22.14 59.8-20.43 58.3-18.73 57.88-15.67L57.88-15.67 69.18-15.67 69.18-16.11Q68.99-19.09 67.6-20.62 66.21-22.14 63.74-22.14ZM101.48 0L95.43 0Q95.04-0.76 94.74-2.47L94.74-2.47Q91.91 0.49 87.81 0.49L87.81 0.49Q83.83 0.49 81.32-1.78 78.8-4.05 78.8-7.4L78.8-7.4Q78.8-11.62 81.94-13.88 85.08-16.14 90.91-16.14L90.91-16.14 94.55-16.14 94.55-17.87Q94.55-19.92 93.4-21.15 92.25-22.39 89.91-22.39L89.91-22.39Q87.88-22.39 86.59-21.37 85.3-20.36 85.3-18.8L85.3-18.8 79.36-18.8Q79.36-20.97 80.8-22.86 82.24-24.76 84.72-25.83 87.2-26.9 90.25-26.9L90.25-26.9Q94.89-26.9 97.65-24.57 100.41-22.24 100.48-18.02L100.48-18.02 100.48-6.1Q100.48-2.54 101.48-0.42L101.48-0.42 101.48 0ZM88.91-4.27L88.91-4.27Q90.67-4.27 92.22-5.13 93.77-5.98 94.55-7.42L94.55-7.42 94.55-12.4 91.35-12.4Q88.05-12.4 86.39-11.25 84.73-10.11 84.73-8.01L84.73-8.01Q84.73-6.3 85.87-5.29 87-4.27 88.91-4.27ZM106.68-26.42L112.27-26.42 112.44-23.66Q115.22-26.9 120.06-26.9L120.06-26.9Q125.36-26.9 127.31-22.85L127.31-22.85Q130.19-26.9 135.41-26.9L135.41-26.9Q139.78-26.9 141.92-24.49 144.06-22.07 144.11-17.36L144.11-17.36 144.11 0 138.17 0 138.17-17.19Q138.17-19.7 137.07-20.87 135.98-22.05 133.44-22.05L133.44-22.05Q131.41-22.05 130.13-20.96 128.85-19.87 128.33-18.12L128.33-18.12 128.36 0 122.43 0 122.43-17.38Q122.3-22.05 117.67-22.05L117.67-22.05Q114.1-22.05 112.61-19.14L112.61-19.14 112.61 0 106.68 0 106.68-26.42ZM156.51-26.42L156.51 0 150.57 0 150.57-26.42 156.51-26.42ZM150.21-33.28L150.21-33.28Q150.21-34.64 151.07-35.55 151.94-36.45 153.55-36.45 155.16-36.45 156.04-35.55 156.92-34.64 156.92-33.28L156.92-33.28Q156.92-31.93 156.04-31.04 155.16-30.15 153.55-30.15 151.94-30.15 151.07-31.04 150.21-31.93 150.21-33.28ZM162.88-26.42L168.47-26.42 168.64-23.36Q171.57-26.9 176.33-26.9L176.33-26.9Q184.58-26.9 184.73-17.46L184.73-17.46 184.73 0 178.79 0 178.79-17.11Q178.79-19.63 177.71-20.84 176.62-22.05 174.15-22.05L174.15-22.05Q170.57-22.05 168.81-18.8L168.81-18.8 168.81 0 162.88 0 162.88-26.42ZM189.73-13.4L189.73-13.4Q189.73-19.56 192.62-23.23 195.51-26.9 200.3-26.9L200.3-26.9Q204.82-26.9 207.4-23.75L207.4-23.75 207.67-26.42 213.02-26.42 213.02-0.81Q213.02 4.39 209.78 7.4 206.55 10.4 201.06 10.4L201.06 10.4Q198.15 10.4 195.38 9.19 192.61 7.98 191.17 6.03L191.17 6.03 193.98 2.47Q196.71 5.71 200.71 5.71L200.71 5.71Q203.67 5.71 205.38 4.11 207.09 2.51 207.09-0.59L207.09-0.59 207.09-2.37Q204.52 0.49 200.25 0.49L200.25 0.49Q195.61 0.49 192.67-3.2 189.73-6.88 189.73-13.4ZM195.64-12.89L195.64-12.89Q195.64-8.91 197.26-6.63 198.88-4.35 201.76-4.35L201.76-4.35Q205.35-4.35 207.09-7.42L207.09-7.42 207.09-19.04Q205.4-22.05 201.81-22.05L201.81-22.05Q198.88-22.05 197.26-19.73 195.64-17.41 195.64-12.89ZM250.71-9.16L250.71-9.16Q250.71-11.5 249.06-12.77 247.41-14.04 243.12-15.33 238.82-16.63 236.28-18.21L236.28-18.21Q231.42-21.26 231.42-26.17L231.42-26.17Q231.42-30.47 234.93-33.25 238.43-36.04 244.02-36.04L244.02-36.04Q247.73-36.04 250.64-34.67 253.54-33.3 255.2-30.77 256.86-28.25 256.86-25.17L256.86-25.17 250.71-25.17Q250.71-27.95 248.96-29.53 247.22-31.1 243.97-31.1L243.97-31.1Q240.94-31.1 239.27-29.81 237.6-28.52 237.6-26.2L237.6-26.2Q237.6-24.24 239.41-22.94 241.21-21.63 245.36-20.4 249.51-19.17 252.03-17.59 254.54-16.02 255.71-13.98 256.89-11.94 256.89-9.2L256.89-9.2Q256.89-4.76 253.48-2.14 250.08 0.49 244.24 0.49L244.24 0.49Q240.38 0.49 237.15-0.94 233.91-2.37 232.12-4.88 230.32-7.4 230.32-10.74L230.32-10.74 236.5-10.74Q236.5-7.71 238.5-6.05 240.5-4.39 244.24-4.39L244.24-4.39Q247.46-4.39 249.09-5.7 250.71-7.01 250.71-9.16ZM263.23-32.84L269.16-32.84 269.16-26.42 273.83-26.42 273.83-22.02 269.16-22.02 269.16-7.28Q269.16-5.76 269.76-5.09 270.36-4.42 271.9-4.42L271.9-4.42Q272.92-4.42 273.97-4.66L273.97-4.66 273.97-0.07Q271.95 0.49 270.07 0.49L270.07 0.49Q263.23 0.49 263.23-7.06L263.23-7.06 263.23-22.02 258.89-22.02 258.89-26.42 263.23-26.42 263.23-32.84ZM292.21-26.56L292.18-21Q291.01-21.19 289.77-21.19L289.77-21.19Q285.69-21.19 284.27-18.07L284.27-18.07 284.27 0 278.34 0 278.34-26.42 284.01-26.42 284.15-23.46Q286.3-26.9 290.11-26.9L290.11-26.9Q291.38-26.9 292.21-26.56L292.21-26.56ZM307.1 0.49L307.1 0.49Q301.46 0.49 297.96-3.06 294.45-6.62 294.45-12.52L294.45-12.52 294.45-13.26Q294.45-17.21 295.98-20.32 297.5-23.44 300.26-25.17 303.02-26.9 306.42-26.9L306.42-26.9Q311.81-26.9 314.75-23.46 317.69-20.02 317.69-13.72L317.69-13.72 317.69-11.33 300.43-11.33Q300.7-8.06 302.62-6.15 304.54-4.25 307.44-4.25L307.44-4.25Q311.52-4.25 314.08-7.54L314.08-7.54 317.28-4.49Q315.69-2.12 313.04-0.82 310.39 0.49 307.1 0.49ZM306.39-22.14L306.39-22.14Q303.95-22.14 302.45-20.43 300.95-18.73 300.53-15.67L300.53-15.67 311.84-15.67 311.84-16.11Q311.64-19.09 310.25-20.62 308.86-22.14 306.39-22.14ZM344.13 0L338.08 0Q337.69-0.76 337.39-2.47L337.39-2.47Q334.56 0.49 330.46 0.49L330.46 0.49Q326.48 0.49 323.97-1.78 321.45-4.05 321.45-7.4L321.45-7.4Q321.45-11.62 324.59-13.88 327.73-16.14 333.56-16.14L333.56-16.14 337.2-16.14 337.2-17.87Q337.2-19.92 336.05-21.15 334.9-22.39 332.56-22.39L332.56-22.39Q330.53-22.39 329.24-21.37 327.95-20.36 327.95-18.8L327.95-18.8 322.01-18.8Q322.01-20.97 323.45-22.86 324.89-24.76 327.37-25.83 329.85-26.9 332.9-26.9L332.9-26.9Q337.54-26.9 340.3-24.57 343.06-22.24 343.13-18.02L343.13-18.02 343.13-6.1Q343.13-2.54 344.13-0.42L344.13-0.42 344.13 0ZM331.56-4.27L331.56-4.27Q333.32-4.27 334.87-5.13 336.42-5.98 337.2-7.42L337.2-7.42 337.2-12.4 334-12.4Q330.7-12.4 329.04-11.25 327.38-10.11 327.38-8.01L327.38-8.01Q327.38-6.3 328.52-5.29 329.66-4.27 331.56-4.27ZM349.33-26.42L354.92-26.42 355.09-23.66Q357.88-26.9 362.71-26.9L362.71-26.9Q368.01-26.9 369.96-22.85L369.96-22.85Q372.84-26.9 378.07-26.9L378.07-26.9Q382.44-26.9 384.57-24.49 386.71-22.07 386.76-17.36L386.76-17.36 386.76 0 380.82 0 380.82-17.19Q380.82-19.7 379.73-20.87 378.63-22.05 376.09-22.05L376.09-22.05Q374.06-22.05 372.78-20.96 371.5-19.87 370.99-18.12L370.99-18.12 371.01 0 365.08 0 365.08-17.38Q364.96-22.05 360.32-22.05L360.32-22.05Q356.75-22.05 355.26-19.14L355.26-19.14 355.26 0 349.33 0 349.33-26.42ZM399.16-26.42L399.16 0 393.22 0 393.22-26.42 399.16-26.42ZM392.86-33.28L392.86-33.28Q392.86-34.64 393.72-35.55 394.59-36.45 396.2-36.45 397.81-36.45 398.69-35.55 399.57-34.64 399.57-33.28L399.57-33.28Q399.57-31.93 398.69-31.04 397.81-30.15 396.2-30.15 394.59-30.15 393.72-31.04 392.86-31.93 392.86-33.28ZM405.53-26.42L411.12-26.42 411.29-23.36Q414.22-26.9 418.98-26.9L418.98-26.9Q427.23-26.9 427.38-17.46L427.38-17.46 427.38 0 421.44 0 421.44-17.11Q421.44-19.63 420.36-20.84 419.27-22.05 416.81-22.05L416.81-22.05Q413.22-22.05 411.46-18.8L411.46-18.8 411.46 0 405.53 0 405.53-26.42ZM432.38-13.4L432.38-13.4Q432.38-19.56 435.27-23.23 438.17-26.9 442.95-26.9L442.95-26.9Q447.47-26.9 450.06-23.75L450.06-23.75 450.32-26.42 455.67-26.42 455.67-0.81Q455.67 4.39 452.44 7.4 449.2 10.4 443.71 10.4L443.71 10.4Q440.8 10.4 438.03 9.19 435.26 7.98 433.82 6.03L433.82 6.03 436.63 2.47Q439.36 5.71 443.37 5.71L443.37 5.71Q446.32 5.71 448.03 4.11 449.74 2.51 449.74-0.59L449.74-0.59 449.74-2.37Q447.17 0.49 442.9 0.49L442.9 0.49Q438.26 0.49 435.32-3.2 432.38-6.88 432.38-13.4ZM438.29-12.89L438.29-12.89Q438.29-8.91 439.91-6.63 441.53-4.35 444.42-4.35L444.42-4.35Q448-4.35 449.74-7.42L449.74-7.42 449.74-19.04Q448.05-22.05 444.46-22.05L444.46-22.05Q441.53-22.05 439.91-19.73 438.29-17.41 438.29-12.89Z" opacity="1" transform="matrix(1,0,0,1,0,0)" fill="#000000" class="slogan-text-1" data-fill-palette-color="secondary" id="text-1"></path></svg></g></svg></g></svg></g></svg></g><g transform="matrix(1,0,0,1,422.8480587504062,0)"><svg viewBox="0 0 116.27322013167344 116.27322013167344" height="116.27322013167344" width="116.27322013167344"><g><svg xmlns="http://www.w3.org/2000/svg" xmlns:xlink="http://www.w3.org/1999/xlink" xml:space="preserve" version="1.1" style="shape-rendering:geometricPrecision;text-rendering:geometricPrecision;image-rendering:optimizeQuality;" viewBox="0 0 103 103" x="0" y="0" fill-rule="evenodd" clip-rule="evenodd" height="116.27322013167344" width="116.27322013167344" class="icon-icon-0" data-fill-palette-color="accent" id="icon-0"><g fill="#ffffff" data-fill-palette-color="accent"><polygon class="" points="0,0 103,0 103,103 0,103 " fill="none"></polygon><g fill="#ffffff" data-fill-palette-color="accent"><path class="" d="M26 52l4 4c6-6 13-10 22-10 9 0 17 4 22 10l4-4c-14-15-38-15-52 0z m6 6l20 20 20-20c-5-5-12-8-20-8-8 0-15 3-20 8z" fill="#000000" data-fill-palette-color="accent"></path><polygon class="" points="16,22 92,22 92,81 61,81 69,73 84,73 84,30 20,30 20,73 36,73 44,81 12,81 12,22 " fill="#000000" fill-rule="nonzero" data-fill-palette-color="accent"></polygon></g></g></svg></g></svg></g></svg></g><defs></defs></svg><rect width="395.52" height="85.30248355590946" fill="none" stroke="none" visibility="hidden"></rect></g></svg></g></svg>